<?xml version="1.0" encoding="UTF-8" standalone="no"?>
<!-- Created with Inkscape (http://www.inkscape.org/) -->

<svg
   width="78.425461mm"
   height="71.373779mm"
   viewBox="0 0 78.425462 71.373779"
   version="1.1"
   id="svg5"
   inkscape:version="1.1 (c68e22c387, 2021-05-23)"
   sodipodi:docname="CDT_Logo.svg"
   xmlns:inkscape="http://www.inkscape.org/namespaces/inkscape"
   xmlns:sodipodi="http://sodipodi.sourceforge.net/DTD/sodipodi-0.dtd"
   xmlns="http://www.w3.org/2000/svg"
   xmlns:svg="http://www.w3.org/2000/svg">
  <sodipodi:namedview
     id="namedview7"
     pagecolor="#ffffff"
     bordercolor="#666666"
     borderopacity="1.0"
     inkscape:pageshadow="2"
     inkscape:pageopacity="0.0"
     inkscape:pagecheckerboard="0"
     inkscape:document-units="mm"
     showgrid="false"
     inkscape:zoom="0.92648709"
     inkscape:cx="148.41006"
     inkscape:cy="372.91399"
     inkscape:window-width="1366"
     inkscape:window-height="705"
     inkscape:window-x="-8"
     inkscape:window-y="-8"
     inkscape:window-maximized="1"
     inkscape:current-layer="layer1" />
  <defs
     id="defs2">
    <path
       id="path-1"
       d="M 0.01461929,0.18371574 H 69.067614 V 47.985381 H 0.01461929"
       inkscape:connector-curvature="0" />
  </defs>
  <g
     inkscape:label="Camada 1"
     inkscape:groupmode="layer"
     id="layer1"
     transform="translate(-167.07823,-67.646859)">
    <path
       d="m 240.85705,75.531086 -5.03109,-2.10261 V 107.3322 l 9.12361,-22.001749 c 1.53938,-3.829733 -0.22555,-8.222524 -4.09252,-9.799365 m -73.21385,13.891737 18.62257,44.866997 c 1.16362,2.89102 3.90479,4.65576 6.79584,4.73082 0.97627,0 1.98991,-0.18742 2.96606,-0.60024 l 27.67112,-11.45143 c 2.81582,-1.16362 4.54294,-3.9424 4.61801,-6.72075 0.0426,-0.97631 -0.15053,-2.065 -0.48813,-3.04116 L 209.0558,72.340067 c -1.0884,-2.891017 -3.86719,-4.6556 -6.79567,-4.693208 -0.97632,0 -1.95247,0.225547 -2.89102,0.563352 l -27.63366,11.451421 c -3.82958,1.576865 -5.66938,5.969656 -4.0924,9.761757 m 60.63614,-14.267223 a 7.5091208,7.5091208 0 0 0 -7.50916,-7.50916 h -5.44402 l 12.95318,31.313115"
       id="path11641"
       style="stroke-width:3.75457" />
    <path
       style="fill:#00579d;fill-opacity:1;stroke-width:0.539673"
       d="M 92.972558,268.75094 C 85.624464,267.15431 77.204238,260.76702 74.103596,254.4376 72.048608,250.24272 2.5957056,82.716771 1.5442871,79.418759 0.06336235,74.773497 0.18598435,67.446191 1.8222158,62.811064 4.0763994,56.42539 8.6281316,50.77445 14.065547,47.611058 17.989675,45.328071 121.89324,2.4386527 126.23487,1.3096912 c 6.64832,-1.72877217 12.3953,-1.11920256 18.82791,1.9970374 3.48123,1.6864558 8.61816,6.3434944 10.80462,9.7952314 1.98045,3.126529 73.21361,173.3068 74.32028,177.55559 1.04233,4.00176 1.00945,11.05456 -0.0686,14.72497 -2.10462,7.16522 -7.37432,13.8242 -13.50671,17.06754 -5.42589,2.86969 -108.89736,45.43494 -112.52767,46.29072 -4.135821,0.97495 -6.661312,0.97726 -11.112092,0.0102 z"
       id="path3192"
       transform="matrix(0.26458333,0,0,0.26458333,167.07823,67.646859)" />
    <path
       style="fill:#00579d;fill-opacity:1;stroke-width:1.52643"
       d="M 207.1922,57.653273 C 194.79803,27.623041 184.66638,2.4693381 184.67742,1.7561556 c 0.011,-0.7131825 6.08222,-1.0566282 13.49152,-0.76321273 11.54517,0.45720003 14.35615,1.11930493 19.65861,4.63043353 3.74045,2.4768138 7.4768,6.7609926 9.44836,10.8336956 3.13424,6.474477 3.24543,8.470318 2.85617,51.266684 l -0.40504,44.529944 z"
       id="path3231"
       transform="matrix(0.26458333,0,0,0.26458333,167.07823,67.646859)" />
    <path
       style="fill:#00579d;fill-opacity:1;stroke-width:1.52643"
       d="m 261.01877,83.444597 c 0,-32.881751 0.38846,-59.785001 0.86325,-59.785001 0.47479,0 5.8085,2.284842 11.85268,5.077426 17.04974,7.877466 24.50073,19.582742 20.923,32.869408 -1.49023,5.534294 -31.69781,79.61243 -33.02494,80.98716 -0.3377,0.3498 -0.61399,-26.26724 -0.61399,-59.148993 z"
       id="path3270"
       transform="matrix(0.26458333,0,0,0.26458333,167.07823,67.646859)" />
  </g>
</svg>
